<svg width="37" height="27" viewBox="0 0 37 27" fill="none" xmlns="http://www.w3.org/2000/svg">
    <path d="M18.4998 19.125C17.6821 19.125 16.8978 18.8879 16.3196 18.466C15.7414 18.044 15.4165 17.4717 15.4165 16.875C15.4165 15.6263 16.7886 14.625 18.4998 14.625C19.3176 14.625 20.1018 14.8621 20.6801 15.284C21.2583 15.706 21.5832 16.2783 21.5832 16.875C21.5832 17.4717 21.2583 18.044 20.6801 18.466C20.1018 18.8879 19.3176 19.125 18.4998 19.125ZM27.7498 22.5V11.25H9.24984V22.5H27.7498ZM27.7498 9C28.5676 9 29.3518 9.23705 29.9301 9.65901C30.5083 10.081 30.8332 10.6533 30.8332 11.25V22.5C30.8332 23.0967 30.5083 23.669 29.9301 24.091C29.3518 24.5129 28.5676 24.75 27.7498 24.75H9.24984C8.43209 24.75 7.64783 24.5129 7.06959 24.091C6.49135 23.669 6.1665 23.0967 6.1665 22.5V11.25C6.1665 10.0013 7.53859 9 9.24984 9H10.7915V6.75C10.7915 5.25816 11.6036 3.82742 13.0492 2.77252C14.4948 1.71763 16.4555 1.125 18.4998 1.125C19.5121 1.125 20.5145 1.27049 21.4497 1.55318C22.3849 1.83586 23.2347 2.25019 23.9505 2.77252C24.6662 3.29485 25.234 3.91495 25.6214 4.59741C26.0088 5.27986 26.2082 6.01131 26.2082 6.75V9H27.7498ZM18.4998 3.375C17.2732 3.375 16.0968 3.73058 15.2295 4.36351C14.3621 4.99645 13.8748 5.85489 13.8748 6.75V9H23.1248V6.75C23.1248 5.85489 22.6376 4.99645 21.7702 4.36351C20.9029 3.73058 19.7265 3.375 18.4998 3.375Z" fill="#636C76" fill-opacity="0.78"/>
</svg>
