<svg xmlns="http://www.w3.org/2000/svg" xmlns:xlink="http://www.w3.org/1999/xlink" width="746.862" height="734.799" viewBox="0 0 746.862 734.799">
    <defs>
        <clipPath id="clip-path">
            <rect id="사각형_189" data-name="사각형 189" width="746.862" height="734.799" fill="none"/>
        </clipPath>
    </defs>
    <g id="그룹_528" data-name="그룹 528" transform="translate(0 0.001)">
        <rect id="사각형_188" data-name="사각형 188" width="724.723" height="711.395" transform="translate(20.113 21.376)" fill="#ebebeb" style="mix-blend-mode: multiply;isolation: isolate"/>
        <path id="패스_32" data-name="패스 32" d="M3.589,33.611v688.51h727.8V3.855H37.725Z" transform="translate(-0.256 -0.275)" fill="#fff"/>
        <g id="그룹_527" data-name="그룹 527" transform="translate(0 -0.001)">
            <g id="그룹_526" data-name="그룹 526" clip-path="url(#clip-path)">
                <path id="패스_33" data-name="패스 33" d="M6.371,31.25a7.92,7.92,0,0,0-2.718,5.863L3.56,46.981,3.416,60.392,3.323,73.807l.264,581.154.059,13.421.2,13.412L3.72,695.218l-.446,13.433.128,9.307a4.458,4.458,0,0,0,4.5,4.288l10.211.132,14.551-.836,14.555.249,14.553.523,14.55-.382,14.551.019,14.555.525,14.553-.358,14.551-.154,14.555-.048,14.553-.081,14.553.61,14.553-.521L207.3,721.8l14.553-.093,14.555.677,14.555-.012,14.553.229,14.557-1.036,14.553.024,14.559.888,14.545-.829,14.545.557,14.551-.279,14.555.5,14.546-.024,14.551-.869,14.555.827,14.551-.29,14.557-.008,14.553.13,14.555.415,14.555-.655,14.559.113,14.555.485,14.559-.981,14.563.836,14.559-.569,14.559.136,14.561-.279,14.565.77,14.553-.372,14.561-.186,14.559.086,14.561.093,14.565.286,14.569.166,14.563-.691,14.575-.255,10.57.592a3.968,3.968,0,0,0,4.279-3.631c.007-.095.012-.189.013-.285l-.18-9.868-.418-13.684.043-13.675.093-13.681.513-13.679-.254-581.42.2-13.684L731.1,44.9l-.2-13.689,1.046-13.7L731.6,7.542a3.975,3.975,0,0,0-4.153-3.73l-10.533.254-14.447-.743-14.443.262-14.447.569-14.452-.836-14.448.98-14.445-.619-14.45.166-14.45.3-14.447-.31-14.45-.176-14.45.257-14.447-.639-14.45.444-14.45.093-14.449-.351-14.45.247-14.451-.34-14.452.971L442.4,3.764l-14.44.355L413.512,4.3l-14.45-.444-14.443.5-14.445-.068-14.453-.772-14.444.131L326.825,3.5l-14.447.152-14.452.669-14.45-.669-14.454.5-14.451-.4-14.454-.175H225.661l-14.454.152-14.455.13L182.3,3.911l-14.46.255L153.387,4l-14.455-.067-14.46-.518-14.452.94L95.562,4.1,81.11,4.2l-14.464-.91L52.171,3.5l-12.688.384a4.7,4.7,0,0,0-2.994,1.188L26.585,14l-11.624,9.67Z" transform="translate(-0.233 -0.233)" fill="none" stroke="#1a1311" stroke-width="3"/>
                <path id="패스_34" data-name="패스 34" d="M37.217,4.529,37.15,14.622l.9,10.1-.163,7.411A3.009,3.009,0,0,1,34.9,35.006l-5.714.175-8.528.209-8.534-.768-8.534.519" transform="translate(-0.256 -0.322)" fill="none" stroke="#1a1311" stroke-width="2"/>
            </g>
        </g>
    </g>
</svg>
